<svg xmlns="http://www.w3.org/2000/svg" xmlns:svg="http://www.w3.org/2000/svg" xmlns:xlink="http://www.w3.org/1999/xlink" id="svg1" width="1031.405" height="1029.44" version="1.1" viewBox="0 0 272.893 272.373" xml:space="preserve"><g id="layer1" transform="translate(-1505.4873,-7.0373068)"><g id="g106" transform="matrix(1.0495486,0,0,1.0495486,47.048113,-171.13708)"><text xml:space="preserve" style="font-style:italic;font-weight:700;font-size:5.86117px;line-height:1.1;font-family:Montserrat;-inkscape-font-specification:'Montserrat Bold Italic';text-decoration-color:#000;fill:#51a2da;stroke:none;stroke-width:.736417;-inkscape-stroke:none;paint-order:fill markers stroke" id="text63" transform="matrix(0.83221638,0.09061671,-0.09061671,0.83221638,41.303259,35.595838)"><textPath id="textPath68" xlink:href="#path68" style="font-style:normal;font-variant:normal;font-weight:600;font-stretch:normal;font-size:5.86117px;font-family:Montserrat;-inkscape-font-specification:'Montserrat Semi-Bold';fill:#51a2da;stroke:none;stroke-width:.736417">BLUE <tspan style="fill:#dedede" id="tspan72">chi</tspan></textPath></text><path style="opacity:1;fill:none;stroke:none;stroke-width:.950678;stroke-linecap:round;stroke-linejoin:round;stroke-dasharray:none;paint-order:fill markers stroke" id="path68" d="m 98.646611,280.72637 c 0,0 11.430539,8.39511 27.792609,-3.79446"/></g><g id="g38" transform="translate(-7.9375004)"><path id="path6" style="fill:#294172;stroke:#294172;stroke-width:1.68829;paint-order:markers fill stroke" d="m 1595.8906,239.04982 c 0,0 17.3089,10.91052 56.7094,17.36692 39.4005,6.45641 51.2515,-17.36692 51.2515,-17.36692 v 21.09386 c 0,0 -11.4337,18.42208 -53.9803,18.42208 -42.5466,0 -53.9806,-18.42208 -53.9806,-18.42208 z"/><path d="m 1773.8591,7.0373161 c -30.4674,-0.021983 -71.3897,40.2771799 -91.3428,67.3463099 -28.6577,-10.959556 -46.9084,-10.293117 -71.0365,-0.697153 -21.2529,-26.300602 -59.3607,-66.2038749 -86.0712,-66.3132177 -26.7104,-0.109344 -1.4096,112.7979047 5.4327,122.6638247 6.8424,9.86591 12.2467,-0.51595 22.3,25.91779 10.0532,26.43374 17.2209,82.63609 61.4851,101.06411 11.6551,4.85227 25.3092,6.48316 35.2511,6.32932 9.9425,0.15439 23.3683,-2.34906 34.1958,-6.32932 47.398,-17.42386 47.1985,-74.63037 57.2518,-101.06411 10.0533,-26.43379 15.4582,-16.05188 22.3005,-25.91779 6.5216,-9.4035 40.7009,-122.9777855 10.2335,-122.9997639 z" style="fill:#51a2da;stroke-width:5.49459;stroke-linecap:round;stroke-linejoin:round;paint-order:fill markers stroke" id="path33"/><g id="g25" transform="matrix(5.4945854,0,0,5.4945854,-639.79471,-717.14772)" style="fill:#294172"><circle style="fill:#294172;stroke-width:.267758;-inkscape-stroke:none;paint-order:fill markers stroke" id="circle13" cx="408.251" cy="161.503" r="1.896"/><circle style="fill:#294172;stroke-width:.267758;-inkscape-stroke:none;paint-order:fill markers stroke" id="circle14" cx="425.233" cy="161.343" r="1.838"/></g><g id="g37"><path style="fill:#db3279;stroke-width:5.31332;stroke-dasharray:none;-inkscape-stroke:none;paint-order:fill markers stroke" id="path9-5" d="m 1607.0755,229.7904 c 0,0 -10.7373,18.69331 4.4412,22.3161 15.1783,3.62281 10.0292,-13.75792 28.4272,-25.49381 -10.9533,-0.56842 -25.4344,14.00391 -29.9922,2.44575 z"/><g id="g24" transform="matrix(5.4945854,0,0,5.4945854,-644.42672,-717.14772)" style="fill:#294172"><g id="g22"><g id="g26"><path style="fill:none;stroke:#294172;stroke-width:1.04548;stroke-linecap:round;stroke-linejoin:round;stroke-dasharray:none;paint-order:fill markers stroke" id="path17" d="m 417.77267,169.59034 c 0,0 4.2719,6.26815 8.87167,1.19384"/><path style="fill:none;stroke:#294172;stroke-width:1.04548;stroke-linecap:round;stroke-linejoin:round;stroke-dasharray:none;paint-order:fill markers stroke" id="path18" d="m 417.33959,169.59034 c 0,0 -4.2719,6.26815 -8.87167,1.19384"/></g><circle style="fill:#294172;stroke-width:.267758;-inkscape-stroke:none;paint-order:fill markers stroke" id="circle18" cx="417.556" cy="168.086" r="1.838"/><ellipse style="fill:#294172;stroke-width:.339273;-inkscape-stroke:none;paint-order:fill markers stroke" id="ellipse18" cx="417.556" cy="167.269" rx="2.952" ry="1.838"/></g></g></g></g><path style="display:none;fill:none;stroke:#e59728;stroke-width:1.5;paint-order:markers fill stroke" id="path97" d="m -690.93068,231.47642 a 94.649513,40.453171 0 0 1 -132.09597,1.88934 94.649513,40.453171 0 0 1 -7.72338,-56.39285 94.649513,40.453171 0 0 1 131.70959,-4.71054" transform="scale(-1,1)"/></g></svg>